# xmcd
#
# Track frame offsets:
# 150
# 16862
# 33236
# 47499
# 62468
# 78611
# 91604
# 106695
# 121819
# 135515
# 148965
# 164196
# 180548
# 195966
# 211588
#
# Disc length: 3031 seconds
#
#
# Revision: 1
# Processed by: cddbd v1.5.2PL0 Copyright (c) Steve Scherf et al.
# Submitted via: FreeRIP 2.942 
#
DISCID=b70bd50f
DTITLE=FORRO SACODE - VOLUME 4
DYEAR=2007
DGENRE=FORRO
TTITLE0=NOSSA HISTORIA
TTITLE1=NAO DESLIGUE O TELEFONE
TTITLE2=STOP
TTITLE3=GUITARRINHA
TTITLE4=ME DA UM MINUTO
TTITLE5=QUERO VER VOCE FELIZ
TTITLE6=NAO ME DESPREZE
TTITLE7=BEM FEITO
TTITLE8=VOCE E EU
TTITLE9=PIRADONA
TTITLE10=BEBENDO E RAPARIGANDO
TTITLE11=BIRI BIRI BAN BAN
TTITLE12=ME AMAR
TTITLE13=POR AMOR
TTITLE14=POR AMOR
EXTD=
EXTT0=
EXTT1=
EXTT2=
EXTT3=
EXTT4=
EXTT5=
EXTT6=
EXTT7=
EXTT8=
EXTT9=
EXTT10=
EXTT11=
EXTT12=
EXTT13=
EXTT14=
PLAYORDER=
